# xmcd
#
# Track frame offsets:
#	150
#	22731
#	46336
#	61081
#	85843
#	108226
#	127363
#	147215
#	165287
#	195385
#	214017
#	234769
#	255538
#	275934
#	288134
#	305585
#
# Disc length: 4392 seconds
#
# Revision: 2
# Processed by: cddbd v1.4PL0 Copyright (c) Steve Scherf et al.
# Submitted via: EasyCDDAExtractor 6.0.0.1
#
DISCID=d6112610
DTITLE=Tracy Chapman - Tracy Chapman Collection
DYEAR=1900
DGENRE=Country
TTITLE0=Fast Car
TTITLE1=Subcity
TTITLE2=Baby I Can Hold You
TTITLE3=The Promise
TTITLE4=I'm Ready
TTITLE5=Crossroads
TTITLE6=Bang Bang Bang
TTITLE7=Telling Stories
TTITLE8=Smoke and Ashes
TTITLE9=Speak The Word
TTITLE10=Wedding Song
TTITLE11=Open Arms
TTITLE12=Give Me One Reason
TTITLE13=Talkin' Bout A Revolution
TTITLE14=She's Got Her Ticket
TTITLE15=All That You Have Is Your Soul
EXTD=
EXTT0=
EXTT1=
EXTT2=
EXTT3=
EXTT4=
EXTT5=
EXTT6=
EXTT7=
EXTT8=
EXTT9=
EXTT10=
EXTT11=
EXTT12=
EXTT13=
EXTT14=
EXTT15=
PLAYORDER=
